<svg xmlns="http://www.w3.org/2000/svg" width="480" height="480"><style>.st1{fill:#5fa819}.st2{fill:#589c17}</style><path d="M474.7 232.4l-66.6-23.3c-26.6-9.3-55.7-7.4-80.9 5.2-25.2 12.6-44.1 34.8-52.6 61.7l-17.4 55.1L240 344V228.8c0-15.3 7.7-29.7 20.4-38.2l-8.9-13.3c-17.2 11.5-27.6 30.8-27.6 51.5v15.8l-10.3-10.3-11.3 11.3 21.7 21.7V443l-16-8v-16.5c0-40.2-19.4-78-52-101.6-32.7-23.5-74.6-29.9-112.8-17.2L5.5 312.4C2.2 313.5 0 316.5 0 320s2.2 6.5 5.5 7.6l8.6 2.9C55.2 344.2 93.5 365 127.3 392l67.8 54.2c.5.3 1 .6 1.5.8l-.1.1 27.6 13.8V480h16V364l28.8-21.6-.1-.1.9-.6c50.7-50.5 116.6-82.8 187.6-91.8l15.7-2c3.7-.5 6.6-3.4 7-7.1s-1.8-7.1-5.3-8.4z" fill="#3d7606"/><path class="st1" d="M307.8 67.7L304 7.5c-.2-3.8-3.1-6.9-6.9-7.4-3.8-.5-7.3 1.7-8.6 5.2l-25.9 72.4C253 104.8 248 133.3 248 162v22c0 3.2 1.9 6.2 4.9 7.4 3 1.2 6.4.6 8.7-1.7 32.2-32.2 49-76.6 46.2-122zM119.5 106L66.6 88.4c-2.7-.9-5.8-.3-7.9 1.6-2.1 1.9-3.1 4.9-2.4 7.7l8.8 39.7c14.1 64.8 71.6 110.9 137.9 110.5h5.2c4.4 0 8-3.6 8-8-.1-60.7-39-114.7-96.7-133.9z"/><path class="st2" d="M158.8 212.8c-30.7-18.9-55.8-45.5-72.9-77.2L60.7 88.7c-3.5 1.5-5.4 5.3-4.5 9l8.8 39.7c14.1 64.8 71.6 110.9 137.9 110.6h5.2c1.8 0 3.6-.7 5-1.9l-54.3-33.3zM329.8 269.6c-16.9 12-30.2 28.4-38.6 47.3l-3.7 8.3c48-41.2 107.1-67.4 169.8-75.3l15.2-1.9h-75.3c-24.2 0-47.7 7.5-67.4 21.6zM204.2 451l-.2-.9c-15.9-87.5-95.6-148.7-184.2-141.6l-3.7.3-10.6 3.5C2.2 313.5 0 316.5 0 320s2.2 6.5 5.5 7.6l8.6 2.9C55.2 344.2 93.5 365 127.3 392l67.8 54.2c.5.3 1 .6 1.5.8l-.1.1 7.7 3.9z"/></svg>